<svg width="37" height="26" viewBox="0 0 37 26" fill="none" xmlns="http://www.w3.org/2000/svg">
<path d="M10.5106 12.0282C10.5106 12.4754 10.5593 12.8381 10.6445 13.104C10.7419 13.3699 10.8636 13.66 11.034 13.9743C11.0948 14.071 11.1192 14.1677 11.1192 14.2523C11.1192 14.3732 11.0461 14.4941 10.8879 14.615L10.1211 15.1227C10.0116 15.1952 9.90206 15.2315 9.80469 15.2315C9.68298 15.2315 9.56127 15.171 9.43956 15.0622C9.26916 14.8809 9.12311 14.6875 9.0014 14.4941C8.87969 14.2886 8.75798 14.0589 8.6241 13.7809C7.67475 14.893 6.48199 15.4491 5.04581 15.4491C4.02344 15.4491 3.20798 15.1589 2.6116 14.5787C2.01521 13.9985 1.71094 13.2249 1.71094 12.2578C1.71094 11.2304 2.07607 10.3963 2.8185 9.76773C3.56094 9.13916 4.54679 8.82488 5.80041 8.82488C6.21423 8.82488 6.64021 8.86114 7.09054 8.92158C7.54087 8.98202 8.00337 9.07872 8.49022 9.18751V8.3051C8.49022 7.38641 8.29548 6.74575 7.91817 6.37103C7.5287 5.9963 6.87146 5.81499 5.93429 5.81499C5.50831 5.81499 5.07015 5.86334 4.61982 5.97213C4.16949 6.08092 3.73133 6.21389 3.30535 6.38312C3.11061 6.46773 2.96456 6.51608 2.87936 6.54026C2.79416 6.56444 2.73331 6.57652 2.68462 6.57652C2.51423 6.57652 2.42903 6.45564 2.42903 6.2018V5.60949C2.42903 5.41608 2.45337 5.27103 2.51423 5.18641C2.57508 5.1018 2.68462 5.01718 2.85502 4.93257C3.281 4.71499 3.79219 4.53367 4.38857 4.38861C4.98495 4.23147 5.61785 4.15894 6.28725 4.15894C7.73561 4.15894 8.79449 4.48531 9.47607 5.13806C10.1455 5.79081 10.4863 6.78202 10.4863 8.11169V12.0282H10.5106ZM5.56916 13.8655C5.97081 13.8655 6.38462 13.793 6.82278 13.648C7.26094 13.5029 7.65041 13.237 7.97903 12.8743C8.17377 12.6447 8.31982 12.3908 8.39285 12.1007C8.46587 11.8106 8.51456 11.46 8.51456 11.0491V10.5414C8.1616 10.4567 7.78429 10.3842 7.39482 10.3359C7.00535 10.2875 6.62804 10.2633 6.25074 10.2633C5.43528 10.2633 4.8389 10.4205 4.43725 10.7469C4.03561 11.0732 3.84087 11.5326 3.84087 12.137C3.84087 12.7051 3.98692 13.1282 4.2912 13.4183C4.58331 13.7205 5.00929 13.8655 5.56916 13.8655ZM15.3425 15.171C15.1234 15.171 14.9774 15.1348 14.88 15.0502C14.7826 14.9776 14.6975 14.8084 14.6244 14.5787L11.7642 5.23477C11.6912 4.99301 11.6547 4.83586 11.6547 4.75125C11.6547 4.55784 11.7521 4.44905 11.9468 4.44905H13.1396C13.3708 4.44905 13.529 4.48532 13.6142 4.56993C13.7116 4.64246 13.7846 4.81169 13.8576 5.04136L15.9024 13.0436L17.8011 5.04136C17.8619 4.7996 17.935 4.64246 18.0323 4.56993C18.1297 4.4974 18.3001 4.44905 18.5192 4.44905H19.4928C19.7241 4.44905 19.8823 4.48532 19.9797 4.56993C20.0771 4.64246 20.1623 4.81169 20.2109 5.04136L22.134 13.1403L24.2396 5.04136C24.3126 4.7996 24.3978 4.64246 24.483 4.56993C24.5803 4.4974 24.7386 4.44905 24.9577 4.44905H26.0896C26.2843 4.44905 26.3938 4.54575 26.3938 4.75125C26.3938 4.81169 26.3817 4.87213 26.3695 4.94466C26.3573 5.01718 26.333 5.11389 26.2843 5.24685L23.3511 14.5908C23.278 14.8326 23.1928 14.9897 23.0955 15.0622C22.9981 15.1348 22.8399 15.1831 22.633 15.1831H21.5863C21.355 15.1831 21.1968 15.1469 21.0994 15.0622C21.0021 14.9776 20.9169 14.8205 20.8682 14.5787L18.9817 6.78202L17.1073 14.5666C17.0465 14.8084 16.9734 14.9655 16.8761 15.0502C16.7787 15.1348 16.6083 15.171 16.3892 15.171H15.3425ZM30.9823 15.4974C30.3494 15.4974 29.7165 15.4249 29.108 15.2798C28.4994 15.1348 28.0248 14.9776 27.7083 14.7963C27.5136 14.6875 27.3797 14.5666 27.331 14.4578C27.2823 14.3491 27.258 14.2282 27.258 14.1194V13.5029C27.258 13.2491 27.3553 13.1282 27.5379 13.1282C27.6109 13.1282 27.684 13.1403 27.757 13.1644C27.83 13.1886 27.9396 13.237 28.0613 13.2853C28.4751 13.4666 28.9254 13.6117 29.4001 13.7084C29.8869 13.8051 30.3616 13.8534 30.8484 13.8534C31.6152 13.8534 32.2116 13.7205 32.6254 13.4545C33.0392 13.1886 33.2583 12.8018 33.2583 12.3062C33.2583 11.9677 33.1488 11.6897 32.9297 11.46C32.7106 11.2304 32.2968 11.0249 31.7004 10.8315L29.9356 10.2875C29.0471 10.0095 28.3899 9.5985 27.9882 9.05455C27.5866 8.52268 27.3797 7.93037 27.3797 7.3018C27.3797 6.79411 27.4892 6.34685 27.7083 5.96004C27.9274 5.57323 28.2195 5.23477 28.5846 4.96883C28.9498 4.69081 29.3636 4.48532 29.8504 4.34026C30.3373 4.19521 30.8484 4.13477 31.384 4.13477C31.6517 4.13477 31.9317 4.14685 32.1994 4.18312C32.4794 4.21938 32.735 4.26773 32.9905 4.31608C33.234 4.37652 33.4652 4.43696 33.6843 4.50949C33.9034 4.58202 34.0738 4.65455 34.1955 4.72707C34.3659 4.82378 34.4876 4.92048 34.5606 5.02927C34.6336 5.12597 34.6702 5.25894 34.6702 5.42817V5.9963C34.6702 6.25015 34.5728 6.38312 34.3902 6.38312C34.2929 6.38312 34.1346 6.33477 33.9277 6.23806C33.234 5.92378 32.455 5.76663 31.5909 5.76663C30.8971 5.76663 30.3494 5.87542 29.9721 6.1051C29.5948 6.33477 29.4001 6.68531 29.4001 7.18092C29.4001 7.51938 29.5218 7.80949 29.7652 8.03916C30.0086 8.26883 30.459 8.4985 31.104 8.704L32.8323 9.24795C33.7086 9.52597 34.3415 9.91279 34.7188 10.4084C35.0961 10.904 35.2787 11.4721 35.2787 12.1007C35.2787 12.6205 35.1692 13.0919 34.9623 13.5029C34.7432 13.9139 34.4511 14.2765 34.0738 14.5666C33.6965 14.8688 33.2461 15.0864 32.7228 15.2436C32.1751 15.4128 31.603 15.4974 30.9823 15.4974Z" fill="white"/>
<path fill-rule="evenodd" clip-rule="evenodd" d="M33.284 21.3727C29.2798 24.3101 23.462 25.8694 18.4597 25.8694C11.4492 25.8694 5.13239 23.2947 0.361339 19.0156C-0.0159634 18.6771 0.324826 18.2178 0.775155 18.4837C5.93568 21.4573 12.3011 23.2584 18.8857 23.2584C23.3281 23.2584 28.2087 22.3398 32.6998 20.4541C33.3692 20.1519 33.9413 20.8892 33.284 21.3727Z" fill="#FF9900"/>
<path fill-rule="evenodd" clip-rule="evenodd" d="M34.9497 19.4866C34.4385 18.8339 31.5661 19.1723 30.2638 19.3295C29.8744 19.3778 29.8135 19.0394 30.1665 18.7855C32.4546 17.1899 36.2155 17.6492 36.6536 18.1811C37.0918 18.7251 36.5319 22.4602 34.3898 24.2492C34.0612 24.5273 33.7448 24.3822 33.8908 24.0196C34.3777 22.8229 35.4609 20.1273 34.9497 19.4866Z" fill="#FF9900"/>
</svg>
