<svg width="29" height="22" viewBox="0 0 29 22" fill="none" xmlns="http://www.w3.org/2000/svg">
<path d="M13.4161 20.8251C17.1419 20.1805 20.2193 19.647 20.2546 19.6397L20.3189 19.6264L16.8013 15.5284C14.8667 13.2746 13.2838 11.4218 13.2838 11.4111C13.2838 11.3909 16.9159 1.59447 16.9364 1.55961C16.9432 1.54796 19.415 5.72765 22.9282 11.6915C26.2173 17.2749 28.929 21.8784 28.9542 21.9216L29 22L17.8209 21.9986L6.64189 21.9972L13.4161 20.8251ZM0 19.5754C0 19.5697 1.65745 16.7517 3.68323 13.3132L7.36645 7.06146L11.6588 3.5334C14.0196 1.59298 15.9576 0.00297947 15.9653 7.97061e-05C15.9731 -0.00281949 15.942 0.0737361 15.8963 0.170204C15.8506 0.266672 13.7532 4.67283 11.2354 9.96168L6.65762 19.5778L3.32881 19.5818C1.49797 19.5841 0 19.5812 0 19.5754Z" fill="#0089D6"/>
</svg>
