<svg width="31" height="24" viewBox="0 0 31 24" fill="none" xmlns="http://www.w3.org/2000/svg">
<g clip-path="url(#clip0_2217_2574)">
<path d="M20.6156 6.61963L23.3103 4.02705L23.4898 2.9354C18.5794 -1.36048 10.7736 -0.873374 6.34697 3.95179C5.11738 5.29195 4.20518 6.96274 3.71875 8.68806L4.68387 8.55723L10.0731 7.7022L10.4892 7.2928C12.8865 4.75975 16.9399 4.41897 19.7078 6.5742L20.6156 6.61963Z" fill="#EA4335"/>
<path d="M27.1501 8.6119C26.5307 6.41741 25.2591 4.44463 23.491 2.93555L19.709 6.57423C21.306 7.82968 22.2157 9.72102 22.1767 11.7048V12.3507C24.0357 12.3507 25.5428 13.8006 25.5428 15.589C25.5428 17.3776 24.0357 18.7912 22.1767 18.7912H15.4353L14.7734 19.4825V23.3668L15.4353 23.9762H22.1767C27.012 24.0124 30.9623 20.307 31 15.655C31.0228 12.8352 29.5778 10.1917 27.1501 8.6119Z" fill="#4285F4"/>
<path d="M8.70335 23.9762H15.4353V18.791H8.70335C8.22369 18.7909 7.75918 18.6918 7.323 18.5L6.36793 18.7819L3.65434 21.3745L3.41797 22.2569C4.93975 23.3624 6.79648 23.9841 8.70335 23.9762Z" fill="#34A853"/>
<path d="M8.70306 7.15637C3.86767 7.1841 -0.0286462 10.978 0.000174117 15.63C0.0162796 18.2278 1.27735 20.6733 3.41768 22.2569L7.32271 18.5C5.62849 17.7636 4.87565 15.8453 5.64108 14.2154C6.4064 12.5855 8.40032 11.8612 10.0943 12.5975C10.8408 12.922 11.4387 13.4973 11.7759 14.2154L15.681 10.4585C14.0194 8.36872 11.4377 7.14693 8.70306 7.15637Z" fill="#FBBC05"/>
</g>
<defs>
<clipPath id="clip0_2217_2574">
<rect width="31" height="24" fill="white"/>
</clipPath>
</defs>
</svg>
