<svg width="20" height="21" viewBox="0 0 20 21" fill="none" xmlns="http://www.w3.org/2000/svg">
<path d="M13.125 14.875V17.6875C13.125 18.2053 12.7053 18.625 12.1875 18.625H4.0625C3.54473 18.625 3.125 18.2053 3.125 17.6875V7.0625C3.125 6.54473 3.54473 6.125 4.0625 6.125H5.625C6.05089 6.125 6.46849 6.1605 6.875 6.2287M13.125 14.875H15.9375C16.4553 14.875 16.875 14.4553 16.875 13.9375V9.875C16.875 6.15876 14.1721 3.0738 10.625 2.4787C10.2185 2.4105 9.80089 2.375 9.375 2.375H7.8125C7.29473 2.375 6.875 2.79473 6.875 3.3125V6.2287M13.125 14.875H7.8125C7.29473 14.875 6.875 14.4553 6.875 13.9375V6.2287M16.875 11.75V10.1875C16.875 8.6342 15.6158 7.375 14.0625 7.375H12.8125C12.2947 7.375 11.875 6.95527 11.875 6.4375V5.1875C11.875 3.6342 10.6158 2.375 9.0625 2.375H8.125" stroke="#D3D6E3" stroke-width="1.5" stroke-linecap="round" stroke-linejoin="round"/>
</svg>
