<svg width="34" height="32" viewBox="0 0 34 32" fill="none" xmlns="http://www.w3.org/2000/svg">
<g clip-path="url(#clip0_2217_2592)">
<path d="M16.8865 0.26547C16.5996 0.279916 16.3184 0.351018 16.0596 0.474604L4.77522 5.86307C4.48315 6.00247 4.22652 6.2053 4.0244 6.45649C3.82227 6.70768 3.67983 7.00079 3.60767 7.31404L0.823745 19.4179C0.75946 19.6968 0.752266 19.9856 0.802588 20.2673C0.85291 20.549 0.959725 20.8178 1.11671 21.0578C1.15478 21.1165 1.19572 21.1733 1.23939 21.228L9.04996 30.9333C9.25214 31.1844 9.50879 31.3872 9.80086 31.5265C10.0929 31.6659 10.4129 31.7382 10.7371 31.7381L23.2626 31.7352C23.5866 31.7355 23.9065 31.6634 24.1986 31.5243C24.4906 31.3852 24.7473 31.1827 24.9497 30.9319L32.7573 21.2251C32.9596 20.9739 33.1022 20.6806 33.1744 20.3673C33.2466 20.0539 33.2466 19.7284 33.1744 19.415L30.3862 7.31115C30.314 6.99791 30.1716 6.7048 29.9694 6.45361C29.7673 6.20241 29.5107 5.99958 29.2186 5.86019L17.9328 0.474604C17.6072 0.319142 17.2475 0.247231 16.8865 0.26547Z" fill="#326CE5"/>
<path d="M16.9962 5.24024C16.6338 5.24027 16.3399 5.56649 16.34 5.96889C16.34 5.97507 16.3412 5.98097 16.3414 5.98711C16.3408 6.04179 16.3382 6.10766 16.34 6.15526C16.3486 6.38735 16.3992 6.56499 16.4297 6.77882C16.4849 7.23649 16.5312 7.61587 16.5026 7.96849C16.4748 8.10146 16.3768 8.22307 16.2895 8.3076L16.2741 8.58505C15.8803 8.61765 15.4838 8.67736 15.0879 8.76721C13.384 9.15383 11.917 10.031 10.8002 11.2152C10.7277 11.1658 10.6009 11.0749 10.5632 11.0471C10.4461 11.0629 10.3276 11.099 10.1734 11.0092C9.87977 10.8117 9.61231 10.539 9.28868 10.2105C9.14039 10.0534 9.03301 9.90376 8.85683 9.7523C8.81682 9.7179 8.75576 9.67138 8.71101 9.63599C8.57327 9.52624 8.41081 9.46901 8.25391 9.46364C8.05219 9.45674 7.858 9.53556 7.73092 9.69485C7.505 9.97803 7.57734 10.4109 7.89217 10.6617C7.89536 10.6643 7.89876 10.6662 7.90198 10.6687C7.94524 10.7038 7.99822 10.7487 8.03799 10.778C8.22495 10.916 8.39573 10.9866 8.58201 11.0961C8.97447 11.3383 9.29983 11.5392 9.55789 11.7813C9.65866 11.8887 9.67628 12.0779 9.68969 12.1597L9.90001 12.3474C8.77412 14.0408 8.25305 16.1324 8.56098 18.2636L8.28617 18.3434C8.21374 18.4369 8.11139 18.584 8.00434 18.6279C7.6667 18.7342 7.28671 18.7732 6.82796 18.8213C6.61258 18.8392 6.42674 18.8285 6.1984 18.8717C6.14815 18.8812 6.07812 18.8995 6.02314 18.9123C6.02123 18.9127 6.01944 18.9133 6.01753 18.9137C6.01453 18.9144 6.01059 18.9159 6.00771 18.9165C5.62095 19.0099 5.37248 19.3652 5.45247 19.7153C5.53248 20.0654 5.91027 20.2783 6.29936 20.1945C6.30217 20.1939 6.30624 20.1938 6.30917 20.1931C6.31356 20.1921 6.31743 20.19 6.32179 20.1889C6.37603 20.177 6.444 20.1638 6.49145 20.1511C6.71594 20.091 6.87852 20.0027 7.08034 19.9255C7.51452 19.7698 7.87413 19.6398 8.22447 19.5892C8.37079 19.5777 8.52496 19.6794 8.60164 19.7223L8.88767 19.6732C9.5459 21.7127 10.9253 23.3611 12.672 24.3955L12.5528 24.6813C12.5958 24.7923 12.6432 24.9425 12.6112 25.0521C12.4838 25.3822 12.2656 25.7306 12.0172 26.119C11.8969 26.2985 11.7738 26.4377 11.6653 26.6431C11.6393 26.6922 11.6062 26.7677 11.5812 26.8197C11.4125 27.1803 11.5362 27.5956 11.8602 27.7515C12.1862 27.9084 12.5908 27.7429 12.7659 27.3816C12.7662 27.3811 12.7671 27.3807 12.7673 27.3802C12.7675 27.3798 12.7672 27.3792 12.7673 27.3788C12.7923 27.3275 12.8276 27.2602 12.8487 27.212C12.9416 26.9992 12.9726 26.8168 13.038 26.6109C13.2116 26.175 13.307 25.7177 13.546 25.4327C13.6114 25.3547 13.7181 25.3247 13.8288 25.2951L13.9774 25.0261C15.5001 25.6102 17.2046 25.7669 18.9072 25.3806C19.2957 25.2924 19.6707 25.1784 20.0332 25.0415C20.0749 25.1155 20.1526 25.2579 20.1734 25.2937C20.2858 25.3302 20.4085 25.3491 20.5085 25.4969C20.6873 25.8022 20.8096 26.1634 20.9586 26.5997C21.0239 26.8055 21.0563 26.988 21.1492 27.2008C21.1704 27.2493 21.2056 27.3176 21.2306 27.369C21.4053 27.7315 21.8113 27.8975 22.1377 27.7403C22.4617 27.5844 22.5855 27.169 22.4168 26.8085C22.3917 26.7565 22.3572 26.681 22.3312 26.6319C22.2227 26.4265 22.0996 26.2887 21.9793 26.1092C21.7309 25.7208 21.5248 25.3982 21.3974 25.0681C21.3442 24.8979 21.4064 24.792 21.4479 24.6813C21.423 24.6529 21.3699 24.4921 21.3385 24.4165C23.1538 23.3454 24.4927 21.6354 25.1215 19.6606C25.2064 19.674 25.3539 19.7001 25.4019 19.7097C25.5006 19.6446 25.5913 19.5597 25.7692 19.5737C26.1196 19.6244 26.4792 19.7544 26.9134 19.91C27.1152 19.9873 27.2778 20.077 27.5023 20.1371C27.5497 20.1497 27.6177 20.1616 27.6719 20.1735C27.6763 20.1746 27.6801 20.1767 27.6845 20.1777C27.6875 20.1783 27.6915 20.1784 27.6944 20.1791C28.0835 20.2628 28.4613 20.05 28.5412 19.6999C28.6211 19.3498 28.3728 18.9944 27.986 18.9011C27.9297 18.8884 27.8499 18.8666 27.7953 18.8563C27.567 18.8131 27.3811 18.8237 27.1658 18.8059C26.707 18.7578 26.327 18.7187 25.9894 18.6125C25.8517 18.5591 25.7538 18.3954 25.7061 18.328L25.4411 18.251C25.5785 17.2575 25.5415 16.2237 25.3037 15.1892C25.0638 14.1451 24.6397 13.1902 24.0741 12.3488C24.142 12.2871 24.2704 12.1735 24.3068 12.14C24.3175 12.0224 24.3083 11.899 24.4302 11.7687C24.6883 11.5265 25.0136 11.3257 25.4061 11.0835C25.5924 10.974 25.7646 10.9034 25.9515 10.7654C25.9938 10.7342 26.0515 10.6848 26.0959 10.6491C26.4107 10.3982 26.4832 9.96536 26.2572 9.68224C26.0312 9.39911 25.5933 9.37244 25.2785 9.62338C25.2337 9.65885 25.1729 9.70511 25.1327 9.73969C24.9565 9.89116 24.8477 10.0408 24.6994 10.1979C24.3758 10.5264 24.1083 10.8005 23.8147 10.998C23.6874 11.0721 23.5011 11.0464 23.4165 11.0415L23.1669 11.2194C21.7437 9.728 19.8061 8.77448 17.7197 8.58925C17.7138 8.50187 17.7062 8.34392 17.7042 8.29639C17.6188 8.2147 17.5156 8.14497 17.4897 7.96849C17.4612 7.61587 17.5088 7.23649 17.564 6.77882C17.5945 6.56499 17.6451 6.38735 17.6538 6.15526C17.6557 6.1025 17.6526 6.02594 17.6524 5.96889C17.6523 5.56649 17.3586 5.2402 16.9962 5.24024ZM16.1745 10.3268L15.9796 13.7669L15.9656 13.7739C15.9525 14.0817 15.6991 14.3274 15.3879 14.3274C15.2605 14.3274 15.1428 14.2865 15.0472 14.2167L15.0416 14.2195L12.2191 12.2199C13.0866 11.3675 14.1961 10.7375 15.4749 10.4473C15.7084 10.3943 15.9419 10.355 16.1745 10.3268ZM17.8192 10.3268C19.3121 10.5103 20.6928 11.1859 21.7508 12.2213L18.9465 14.2083L18.9367 14.2041C18.6878 14.3858 18.3371 14.3407 18.1431 14.0976C18.0636 13.998 18.0219 13.8809 18.0169 13.7627L18.0141 13.7613L17.8192 10.3268ZM11.1956 13.5049L13.7727 15.8086L13.7699 15.8226C14.0025 16.0247 14.0368 16.3754 13.8428 16.6185C13.7633 16.7181 13.6569 16.7849 13.5427 16.8161L13.5399 16.8273L10.2365 17.7801C10.0684 16.2437 10.4307 14.7501 11.1956 13.5049ZM22.7785 13.5063C23.1614 14.1265 23.4514 14.8193 23.624 15.5703C23.7945 16.3124 23.8373 17.0531 23.767 17.7689L20.4468 16.8133L20.444 16.7992C20.1467 16.718 19.9639 16.4158 20.0332 16.1126C20.0615 15.9884 20.1275 15.8834 20.2168 15.8057L20.2154 15.7987L22.7785 13.5063ZM16.4676 15.9865H17.5234L18.1795 16.8062L17.944 17.8292L16.9962 18.2846L16.0455 17.8278L15.81 16.8048L16.4676 15.9865ZM19.8523 18.7918C19.8971 18.7896 19.9418 18.7936 19.9855 18.8016L19.9911 18.7946L23.4081 19.372C22.908 20.776 21.9511 21.9924 20.6725 22.8065L19.3461 19.6046L19.3503 19.599C19.2285 19.316 19.3504 18.9842 19.6307 18.8493C19.7025 18.8147 19.7775 18.7956 19.8523 18.7918ZM14.1134 18.8059C14.3742 18.8095 14.608 18.9904 14.6686 19.2557C14.697 19.3798 14.6832 19.5029 14.6364 19.6116L14.6462 19.6242L13.3338 22.7938C12.1068 22.007 11.1295 20.8288 10.6067 19.3832L13.9942 18.8087L13.9998 18.8157C14.0377 18.8087 14.0761 18.8053 14.1134 18.8059ZM16.9751 20.1945C17.066 20.1912 17.1581 20.2098 17.2457 20.252C17.3606 20.3072 17.4493 20.3942 17.5051 20.4986H17.5177L19.1877 23.5141C18.9709 23.5867 18.7481 23.6487 18.5203 23.7005C17.2431 23.9903 15.97 23.9024 14.8173 23.5099L16.483 20.5H16.4858C16.5857 20.3132 16.7753 20.2018 16.9751 20.1945Z" fill="white"/>
</g>
<defs>
<clipPath id="clip0_2217_2592">
<rect width="33" height="32" fill="white" transform="translate(0.5)"/>
</clipPath>
</defs>
</svg>
