<svg width="42" height="42" viewBox="0 0 42 42" fill="none" xmlns="http://www.w3.org/2000/svg">
<path d="M17.5859 14.1751L17.6734 16.1876L16.2734 18.8126L14.0859 23.1001L13.6484 26.6876L15.2234 31.7626L18.8109 33.7751H24.2359L29.3109 29.9251L31.5859 23.8876L26.3359 17.5001L24.8484 13.9126L17.5859 14.1751Z" fill="#ECEFF1"/>
<path d="M30.0109 19.1627C28.6109 17.1502 27.4734 15.9252 26.8609 13.3877C26.2484 10.8502 27.0359 11.5502 26.5109 9.36267C26.2484 8.22517 25.8109 7.43767 25.3734 6.82517C24.8484 6.21267 24.2359 5.86267 23.8859 5.77517C23.0984 5.33767 21.2609 4.63767 18.9859 5.86267C16.6234 7.08767 16.8859 9.71267 17.3234 15.0502C17.3234 15.4002 17.2359 15.8377 17.0609 16.1877C16.7109 16.9752 16.0984 17.6752 15.5734 18.2877C14.9609 19.1627 14.3484 20.0377 13.9109 21.0002C12.8609 23.0127 11.8984 25.5502 12.1609 26.5127C12.5984 26.4252 18.1109 34.8252 18.1109 35.0002C18.4609 34.9127 19.9484 34.9127 21.2609 34.9127C23.0984 34.8252 24.1484 34.7377 25.6359 35.0877C25.6359 34.8252 25.5484 34.5627 25.5484 34.3002C25.5484 33.7752 25.6359 33.3377 25.7234 32.7252C25.8109 32.2877 25.8984 31.8502 25.9859 31.3252C25.1109 32.1127 23.5359 32.9877 22.0484 33.2502C20.7359 33.5127 18.5484 33.0752 17.4984 31.7627C17.5859 31.7627 17.7609 31.7627 17.8484 31.6752C18.1109 31.5877 18.3734 31.5002 18.4609 31.3252C18.7234 30.8877 18.5484 30.4502 18.3734 30.1877C18.1984 29.9252 16.8859 28.9627 16.2734 28.4377C15.6609 27.9127 15.3109 27.6502 14.9609 27.3002C14.9609 27.3002 14.4359 26.7752 14.2609 26.6002C14.0859 26.4252 13.9984 26.2502 13.9109 26.1627C13.7359 25.7252 13.6484 25.2002 13.7359 24.5002C13.8234 23.5377 14.1734 22.7502 14.6109 21.8752C14.7859 21.5252 15.2234 20.8252 15.2234 20.8252C15.2234 20.8252 13.7359 24.5002 14.5234 25.6377C14.5234 25.6377 14.6109 24.5002 14.9609 23.3627C15.2234 22.5752 15.6609 21.4377 16.1859 20.8252C16.7109 20.2127 18.0234 17.9377 18.1109 16.5377C18.1109 15.9252 18.1984 15.3127 18.1984 14.8752C17.8484 14.5252 23.9734 13.6502 24.3234 14.6127C24.4109 14.9627 25.6359 18.1127 26.3359 19.7752C26.6859 20.5627 27.1234 21.2627 27.3859 22.1377C27.6484 23.1002 27.8234 24.4127 27.8234 25.7252C27.8234 25.9877 27.8234 26.4252 27.7359 26.8627C27.9109 26.8627 31.3234 23.1877 27.2984 20.1252C27.2984 20.1252 29.7484 21.2627 29.8359 23.5377C29.9234 25.3752 29.1359 26.8627 28.9609 27.1252C29.0484 27.1252 30.7984 27.9127 30.8859 27.9127C31.2359 27.9127 31.9359 27.6502 31.9359 27.6502C32.0234 27.3877 32.2859 26.6877 32.2859 26.4252C32.8984 24.4127 31.4109 21.1752 30.0109 19.1627Z" fill="#263238"/>
<path d="M18.8992 13.3877C19.5274 13.3877 20.0367 12.6042 20.0367 11.6377C20.0367 10.6712 19.5274 9.8877 18.8992 9.8877C18.271 9.8877 17.7617 10.6712 17.7617 11.6377C17.7617 12.6042 18.271 13.3877 18.8992 13.3877Z" fill="#ECEFF1"/>
<path d="M22.8391 13.5626C23.6606 13.5626 24.3266 12.6616 24.3266 11.5501C24.3266 10.4386 23.6606 9.5376 22.8391 9.5376C22.0175 9.5376 21.3516 10.4386 21.3516 11.5501C21.3516 12.6616 22.0175 13.5626 22.8391 13.5626Z" fill="#ECEFF1"/>
<path d="M19.5368 11.7573C19.4641 11.182 19.133 10.75 18.7974 10.7924C18.4618 10.8348 18.2487 11.3356 18.3215 11.9109C18.3942 12.4862 18.7252 12.9182 19.0608 12.8758C19.3964 12.8334 19.6095 12.3326 19.5368 11.7573Z" fill="#212121"/>
<path d="M22.75 13.0375C23.2332 13.0375 23.625 12.5282 23.625 11.9C23.625 11.2718 23.2332 10.7625 22.75 10.7625C22.2668 10.7625 21.875 11.2718 21.875 11.9C21.875 12.5282 22.2668 13.0375 22.75 13.0375Z" fill="#212121"/>
<path d="M34.3875 31.15C34.0375 30.975 33.425 30.7125 32.9 29.925C32.6375 29.4875 32.725 28.2625 32.2875 27.7375C32.025 27.3875 31.675 27.5625 31.5875 27.5625C30.8 27.7375 28.9625 28.9625 27.7375 27.5625C27.5625 27.3875 27.3 27.125 26.8625 27.125C26.425 27.125 26.25 27.3 26.075 27.65C25.9 28 25.9 28.2625 25.9 29.1375C25.9 29.8375 25.9 30.625 25.8125 31.2375C25.6375 32.725 25.375 33.6 25.375 34.475C25.375 35.4375 25.6375 36.05 25.9875 36.3125C26.25 36.575 26.6875 36.75 27.65 36.75C28.6125 36.75 29.225 36.4 29.8375 35.7875C30.275 35.35 30.625 35.175 31.85 34.3C32.8125 33.6875 34.3 32.9 34.5625 32.6375C34.7375 32.4625 35 32.375 35 31.85C35 31.4125 34.65 31.2375 34.3875 31.15Z" fill="#FFC107"/>
<path d="M16.7995 31.4125C15.9245 30.0125 15.837 29.75 15.2245 28.875C14.6995 28 13.562 26.3375 12.862 26.3375C12.337 26.3375 12.0745 26.6 11.7245 26.95C11.3745 27.3 11.0245 28.0875 10.412 28.525C9.88697 28.9625 8.39947 28.875 8.04947 29.4C7.69947 29.925 8.39947 30.7125 8.39947 32.025C8.39947 32.55 7.96197 32.9 7.87447 33.25C7.78697 33.6875 7.69947 33.95 7.87447 34.3C8.22447 34.825 8.66197 35 11.637 35.6125C13.212 35.9625 14.6995 36.8375 15.662 36.925C16.6245 37.0125 18.287 36.925 18.287 34.5625C18.3745 33.1625 17.587 32.8125 16.7995 31.4125Z" fill="#FFC107"/>
<path d="M18.4625 15.575C17.9375 15.225 17.5 14.875 17.5 14.35C17.5 13.825 17.85 13.65 18.375 13.2125C18.4625 13.125 19.425 12.25 20.3875 12.25C21.35 12.25 22.4875 12.8625 22.925 13.0375C23.7125 13.2125 24.5 13.3875 24.4125 14C24.325 14.875 24.2375 15.05 23.3625 15.4875C22.75 15.6625 21.6125 16.625 20.825 16.625C20.475 16.625 19.95 16.625 19.6 16.5375C19.3375 16.45 18.9 16.0125 18.4625 15.575Z" fill="#FFC107"/>
<path d="M18.2878 14.8751C18.4628 15.0501 18.7253 15.2251 18.9878 15.3126C19.1628 15.4001 19.4253 15.4876 19.4253 15.4876H20.2128C20.6503 15.4876 21.2628 15.3126 21.8753 14.9626C22.4878 14.7001 22.5753 14.5251 23.0128 14.3501C23.4503 14.0876 23.8878 13.8251 23.7128 13.7376C23.5378 13.6501 23.3628 13.7376 22.7503 14.0876C22.2253 14.4376 21.7878 14.6126 21.2628 14.8751C21.0003 14.9626 20.6503 15.1376 20.3878 15.1376C20.1253 15.1376 19.8628 15.1376 19.6003 15.1376C19.3378 15.1376 19.1628 15.0501 18.9003 14.9626C18.7253 14.8751 18.6378 14.7876 18.5503 14.7876C18.3753 14.7001 18.0253 14.3501 17.8503 14.2626C17.8503 14.2626 17.6753 14.2626 17.7628 14.3501C18.0253 14.6126 18.1128 14.7001 18.2878 14.8751Z" fill="#634703"/>
<path d="M20.9141 12.9501C21.0016 13.1251 21.1766 13.1251 21.2641 13.2126C21.3516 13.3001 21.4391 13.3001 21.4391 13.3001C21.5266 13.2126 21.4391 13.0376 21.3516 13.0376C21.3516 12.8626 20.9141 12.8626 20.9141 12.9501Z" fill="#634703"/>
<path d="M19.5117 13.1248C19.5117 13.2123 19.6867 13.2998 19.6867 13.2123C19.7742 13.1248 19.8617 13.0373 19.9492 13.0373C20.1242 12.9498 20.0367 12.8623 19.7742 12.8623C19.5992 12.9498 19.5992 13.0373 19.5117 13.1248Z" fill="#634703"/>
<path d="M27.9984 28.6127V28.8752C28.1734 29.2252 28.6109 29.3127 28.9609 29.3127C29.4859 29.3127 30.0109 28.9627 30.2734 28.6127C30.2734 28.5252 30.3609 28.4377 30.4484 28.3502C30.6234 28.0877 30.7109 27.9127 30.7984 27.8252C30.7984 27.8252 30.7109 27.7377 30.7109 27.6502C30.6234 27.4752 30.3609 27.3002 30.0109 27.2127C29.7484 27.1252 29.3109 27.0377 29.1359 27.0377C28.3484 26.9502 27.9109 27.2127 27.6484 27.4752C27.6484 27.4752 27.7359 27.4752 27.7359 27.5627C27.9109 27.7377 27.9984 27.9127 27.9984 28.1752C28.0859 28.3502 27.9984 28.4377 27.9984 28.6127Z" fill="#455A64"/>
</svg>
