<svg width="64" height="64" viewBox="0 0 64 64" fill="none" xmlns="http://www.w3.org/2000/svg">
<g clip-path="url(#clip0_2217_2535)">
<path d="M54.4 0H9.6C4.29807 0 0 4.29807 0 9.6V54.4C0 59.7019 4.29807 64 9.6 64H54.4C59.7019 64 64 59.7019 64 54.4V9.6C64 4.29807 59.7019 0 54.4 0Z" fill="url(#paint0_linear_2217_2535)" fill-opacity="0.08"/>
<path d="M9.59961 0.5H54.4004C59.4259 0.50021 63.4998 4.57413 63.5 9.59961V54.4004C63.4998 59.4259 59.4259 63.4998 54.4004 63.5H9.59961C4.57413 63.4998 0.50021 59.4259 0.5 54.4004V9.59961C0.500211 4.57413 4.57413 0.500211 9.59961 0.5Z" stroke="#99A7F1" stroke-opacity="0.1"/>
<path d="M35.25 21.25V20.75C28.75 20.75 34.625 25 35.25 21.25ZM38.25 19C39.125 16.375 43.625 16.125 44.125 19.375H42.875C42.5 17.5 39.375 17.375 39.375 20.75C39.375 22.625 42.25 23.75 42.875 21.5H44.125C43.375 25.625 36.75 24.125 38.25 19ZM20 17H21.25V18.125C21.875 16.625 24.625 16.5 25.125 18.25C26 16.375 29.5 16.5 29.5 19.125V23.75H28.125V19.5C28.125 17.625 25.375 17.625 25.375 19.625V23.75H24V19.375C23.6941 18.205 22.1356 17.9713 21.5 19L21.25 19.625V23.75H20V17ZM22.875 49.375C17 49.375 13.375 45.25 13.375 38.625C13.375 32 17 28 22.875 28C28.75 28 32.5 32.125 32.5 38.625C32.5 45.125 28.875 49.375 22.875 49.375ZM33.875 23.75C30.25 24.625 29.75 20 33.5 19.875L35.25 19.75V19.25C35.375 17.75 32.875 17.625 32.5 19H31.25C31.2547 18.6914 31.341 18.3895 31.5 18.125C32.5 16.375 36.625 16.375 36.625 19.125V23.75H35.375V22.625C35.2206 22.9094 35.0066 23.157 34.7478 23.3512C34.4889 23.5453 34.1912 23.6814 33.875 23.75ZM42.375 49.375C37.875 49.125 34.75 47 34.5 43.25H37.5C40.375 52.25 55.75 42.625 40.625 39.5C38.25 39 36.5 37.875 35.75 36.5C31 27.25 49.375 24.5 49.875 34H47C46.125 27.875 34.75 31.25 38.875 35.5C40.625 37.25 44.25 37.125 46.875 38.25C53.125 41.125 50.125 49.625 42.375 49.375ZM22.875 30.625C18.875 30.625 16.375 33.75 16.375 38.625C16.375 43.5 18.875 46.625 22.875 46.625C26.875 46.625 29.5 43.625 29.5 38.625C29.5 33.625 27 30.625 22.875 30.625Z" fill="white"/>
</g>
<defs>
<linearGradient id="paint0_linear_2217_2535" x1="32" y1="64" x2="32" y2="-3.09677" gradientUnits="userSpaceOnUse">
<stop stop-color="#F3EEFF" stop-opacity="0"/>
<stop offset="1" stop-color="#F3EEFF"/>
</linearGradient>
<clipPath id="clip0_2217_2535">
<rect width="64" height="64" fill="white"/>
</clipPath>
</defs>
</svg>
